<svg xmlns="http://www.w3.org/2000/svg" width="25" height="24" viewBox="0 0 25 24" fill="none">
  <path
    d="M17.3327 9.1697C17.1453 8.98345 16.8919 8.87891 16.6277 8.87891C16.3635 8.87891 16.1101 8.98345 15.9227 9.1697L12.3327 12.7097L8.79271 9.1697C8.60535 8.98345 8.3519 8.87891 8.08771 8.87891C7.82353 8.87891 7.57007 8.98345 7.38271 9.1697C7.28898 9.26266 7.21459 9.37326 7.16382 9.49512C7.11305 9.61698 7.08691 9.74769 7.08691 9.8797C7.08691 10.0117 7.11305 10.1424 7.16382 10.2643C7.21459 10.3861 7.28898 10.4967 7.38271 10.5897L11.6227 14.8297C11.7157 14.9234 11.8263 14.9978 11.9481 15.0486C12.07 15.0994 12.2007 15.1255 12.3327 15.1255C12.4647 15.1255 12.5954 15.0994 12.7173 15.0486C12.8391 14.9978 12.9497 14.9234 13.0427 14.8297L17.3327 10.5897C17.4264 10.4967 17.5008 10.3861 17.5516 10.2643C17.6024 10.1424 17.6285 10.0117 17.6285 9.8797C17.6285 9.74769 17.6024 9.61698 17.5516 9.49512C17.5008 9.37326 17.4264 9.26266 17.3327 9.1697Z"
    fill="#3C4351"
  />
</svg>
