<?xml version="1.0" encoding="UTF-8"?>
<svg id="Layer_1" data-name="Layer 1" xmlns="http://www.w3.org/2000/svg" viewBox="0 0 194.12 230.72">
  <defs>
    <style>
      .cls-1 {
        fill: currentColor;
        fill-rule: evenodd;
        stroke-width: 0px;
      }
    </style>
  </defs>
  <path class="cls-1" d="m57.4,38.35c31.57-21.05,74.23-12.53,95.29,19.05,21.05,31.57,12.53,74.23-19.05,95.29-31.57,21.05-74.23,12.53-95.29-19.04-21.05-31.57-12.53-74.23,19.04-95.29m-14.87-22.3C86.42-13.21,145.72-1.35,174.98,42.53c24.39,36.58,20.21,83.85-7.26,115.53l22.16,33.23c7.74,11.61,4.58,27.45-7.03,35.19-11.61,7.74-27.45,4.58-35.19-7.03l-22.16-33.23c-39.8,13.18-85.06-1.14-109.45-37.71C-13.21,104.62-1.36,45.32,42.53,16.06Z"/>
  <path class="cls-1" d="m128.33,33.18c11.11,0,20.11,9,20.11,20.11s-9,20.11-20.11,20.11-20.11-9-20.11-20.11,9-20.11,20.11-20.11"/>
</svg>